<?xml version="1.0" encoding="UTF-8" standalone="no"?>
<svg
   version="1.0"
   width="336pt"
   height="210pt"
   viewBox="0 0 336 210.00001"
   preserveAspectRatio="xMidYMid"
   id="svg118"
   sodipodi:docname="aep.svg"
   inkscape:version="1.2.2 (b0a8486541, 2022-12-01)"
   inkscape:export-filename="aep.svg"
   inkscape:export-xdpi="72"
   inkscape:export-ydpi="72"
   xmlns:inkscape="http://www.inkscape.org/namespaces/inkscape"
   xmlns:sodipodi="http://sodipodi.sourceforge.net/DTD/sodipodi-0.dtd"
   xmlns="http://www.w3.org/2000/svg"
   xmlns:svg="http://www.w3.org/2000/svg"
   xmlns:rdf="http://www.w3.org/1999/02/22-rdf-syntax-ns#"
   xmlns:cc="http://creativecommons.org/ns#"
   xmlns:dc="http://purl.org/dc/elements/1.1/">
  <defs
     id="defs122" />
  <sodipodi:namedview
     pagecolor="#ffffff"
     bordercolor="#666666"
     borderopacity="1"
     objecttolerance="10"
     gridtolerance="10"
     guidetolerance="10"
     inkscape:pageopacity="0"
     inkscape:pageshadow="2"
     inkscape:window-width="1916"
     inkscape:window-height="1052"
     id="namedview120"
     showgrid="false"
     inkscape:zoom="1.625625"
     inkscape:cx="337.40869"
     inkscape:cy="219.30027"
     inkscape:window-x="1920"
     inkscape:window-y="24"
     inkscape:window-maximized="1"
     inkscape:current-layer="g116"
     fit-margin-top="0.2"
     fit-margin-left="0"
     fit-margin-right="0"
     fit-margin-bottom="0"
     inkscape:showpageshadow="0"
     inkscape:pagecheckerboard="1"
     inkscape:deskcolor="#d1d1d1"
     inkscape:document-units="pt" />
  <metadata
     id="metadata86">
Created by potrace 1.16, written by Peter Selinger 2001-2019
<rdf:RDF>
  <cc:Work
     rdf:about="">
    <dc:format>image/svg+xml</dc:format>
    <dc:type
       rdf:resource="http://purl.org/dc/dcmitype/StillImage" />
  </cc:Work>
</rdf:RDF>
</metadata>
  <g
     transform="matrix(0.1,0,0,-0.1,-476.95,1149.1339)"
     id="g116"
     style="fill:#000000;stroke:none">
    <path
       d="m 6020.0532,11481.195 c -62.3847,-15.508 -110.0905,-39.876 -280.4684,-142.218 -95.4118,-57.596 -285.1866,-140.002 -387.9377,-168.356 -100.654,-27.913 -153.078,-26.584 -226.9959,4.872 -76.539,32.343 -86.4995,23.039 -76.539,-71.33 8.9122,-79.305 8.3878,-80.192 -83.3541,-182.092 -18.3484,-20.38 -40.8908,-48.735 -49.8028,-63.797 l -16.7758,-26.584 v -90.824 -90.825 l -16.7755,-30.126 c -9.4364,-16.836 -34.6,-52.723 -56.0937,-79.749 -48.2302,-62.026 -55.5694,-73.989 -55.5694,-93.039 0,-17.279 17.824,-33.229 71.2965,-62.027 16.7757,-8.861 42.4635,-23.481 56.0937,-31.899 14.1545,-8.418 34.0756,-16.393 44.5604,-18.164 45.6089,-7.533 125.2933,7.532 353.3377,66.456 107.9935,27.912 154.6508,35.444 219.1324,35.887 46.133,0 59.2391,-1.773 81.2571,-10.191 44.0362,-17.278 74.4422,-47.405 115.3329,-115.634 25.1634,-41.647 35.6483,-65.572 78.636,-175.445 45.0845,-116.079 72.8692,-174.1186 123.1963,-259.6267 45.0846,-76.2026 158.3205,-251.6487 163.0387,-252.0918 6.2909,0 53.9967,37.6591 73.3936,58.9254 14.1545,14.6194 24.6393,33.6713 34.0756,59.8107 17.2999,48.2919 32.5029,73.5462 61.8602,104.5588 l 23.5909,23.925 6.2909,126.7113 c 3.6697,69.5573 8.3879,126.7103 9.9605,126.7103 1.5728,0 13.1061,-44.304 25.6878,-98.357 12.5817,-54.4939 23.5908,-99.2421 24.6393,-100.1283 0.5243,-0.8863 19.9211,9.3043 42.4633,22.5968 41.4151,24.3669 109.5663,60.6955 114.2844,60.6955 9.9607,0 -8.3879,-17.721 -89.1207,-88.1655 -49.8028,-44.305 -98.5571,-89.0519 -107.4693,-100.5707 -22.5422,-27.0256 -70.7724,-107.6606 -102.2268,-170.1296 -44.0361,-87.2798 -66.0542,-110.7613 -132.6327,-141.7744 -14.1545,-6.6458 -30.4059,-20.8231 -45.6089,-39.431 -13.1059,-15.5067 -22.5422,-29.2411 -21.4937,-30.1272 1.0484,-0.886 26.2119,1.3291 56.0937,4.8735 29.8816,3.9874 100.654,9.747 156.7477,13.7344 226.9959,14.6205 233.811,16.8359 320.3106,91.7104 50.8513,43.4184 60.2876,49.6212 102.2268,65.5707 90.1693,34.5576 135.7781,58.925 214.4141,113.8626 47.7058,33.6712 73.3936,67.7856 157.7963,211.7763 78.6359,133.3555 90.6935,160.3815 94.8874,215.7625 5.7666,69.559 -13.106,132.47 -70.7724,242.79 -43.512,83.734 -66.0542,136.457 -84.4026,197.596 -16.2516,54.053 -33.0271,130.7 -29.8818,133.357 1.0485,0.886 10.4849,-17.721 21.4939,-41.646 46.1332,-101.899 101.1784,-205.13 148.3599,-278.233 79.6846,-123.166 96.4602,-164.369 96.9844,-239.244 0.5242,-76.646 -13.106,-124.937 -59.239,-210.0024 -37.7454,-68.6732 -43.512,-97.027 -39.8423,-184.3064 1.5727,-38.99 4.7182,-85.5082 6.2909,-103.2307 5.7667,-58.4819 -15.2029,-94.8115 -70.2482,-119.6221 -34.5998,-15.5066 -67.1027,-43.4184 -90.6935,-78.419 -8.3878,-11.9623 -15.2029,-23.4814 -15.2029,-24.8105 0,-5.3166 61.8603,-8.4179 248.4896,-12.8483 103.2754,-2.6584 209.1719,-6.6457 235.3838,-8.861 26.2121,-2.6582 54.5209,-3.5442 62.3845,-2.2152 l 14.6788,3.1013 -3.1454,30.1272 c -4.7181,38.9879 -1.5727,48.2919 25.6877,76.2038 12.5818,12.8482 44.0363,50.5071 70.2482,83.7354 26.7362,32.7854 66.5785,76.6459 88.5965,97.0272 60.812,55.8238 98.5571,129.8119 121.6237,239.2451 6.8152,34.1144 9.4364,39.4307 12.0575,28.7969 6.8151,-25.2531 4.7183,-116.5207 -3.1453,-154.1801 -15.7273,-75.7606 -60.812,-168.3563 -115.3329,-237.4717 l -27.7847,-35.0007 28.8332,-23.4814 c 39.3179,-32.7854 86.4997,-82.8494 110.0903,-116.9639 l 19.9211,-28.7979 h 128.9631 c 70.7725,0 143.6418,1.329 160.9417,2.6582 30.9301,3.1013 32.5029,3.5443 38.2695,18.6079 8.3879,21.7093 3.1454,67.3429 -16.2514,132.4705 -20.4453,70.8874 -36.1726,104.5588 -111.6631,240.5734 -95.4117,172.7888 -124.2448,238.8024 -124.2448,287.0934 0,14.178 8.3877,50.951 20.9696,89.052 72.8692,225.067 89.645,386.779 52.9481,506.844 -58.1907,190.954 -453.9917,555.135 -689.3755,635.327 -50.8513,17.278 -146.2629,38.103 -223.3262,48.736 -47.1817,6.645 -84.4028,7.531 -257.9261,6.645 -218.0839,-1.33 -260.0231,0.886 -331.3197,19.494 -23.5908,6.203 -89.6451,31.013 -147.3114,54.938 -57.6664,24.367 -119.0026,46.963 -136.3025,50.95 -40.3664,8.86 -102.2268,7.973 -141.5447,-1.772 z"
       id="path88"
       style="fill:#ffffff;fill-opacity:1;stroke:#0a3762;stroke-width:0.481935;stroke-opacity:1"
       inkscape:connector-curvature="0" />
  </g>
</svg>
